<svg width="16" height="16" viewBox="0 0 16 16" fill="none" xmlns="http://www.w3.org/2000/svg">
<path d="M13.8333 0.5H2.16667C1.25 0.5 0.5 1.25 0.5 2.16667V13.8333C0.5 14.75 1.25 15.5 2.16667 15.5H13.8333C14.75 15.5 15.5 14.75 15.5 13.8333V2.16667C15.5 1.25 14.75 0.5 13.8333 0.5ZM11.3333 8.83333H4.66667C4.20833 8.83333 3.83333 8.45833 3.83333 8C3.83333 7.54167 4.20833 7.16667 4.66667 7.16667H11.3333C11.7917 7.16667 12.1667 7.54167 12.1667 8C12.1667 8.45833 11.7917 8.83333 11.3333 8.83333Z" fill="#292E39"/>
</svg>
