<svg width="31" height="30" viewBox="0 0 31 30" fill="none" xmlns="http://www.w3.org/2000/svg">
<path opacity="0.8" d="M15.0038 0C6.71941 0 0.00378418 6.71562 0.00378418 15C0.00378418 23.2844 6.71941 30 15.0038 30C23.2882 30 30.0038 23.2844 30.0038 15C30.0038 6.71562 23.2882 0 15.0038 0ZM11.3319 21.2172H8.29441V11.4422H11.3319V21.2172ZM9.79441 10.2422C8.83503 10.2422 8.21472 9.5625 8.21472 8.72187C8.21472 7.86406 8.85378 7.20469 9.83347 7.20469C10.8132 7.20469 11.4132 7.86406 11.4319 8.72187C11.4319 9.5625 10.8132 10.2422 9.79441 10.2422ZM22.4257 21.2172H19.3882V15.8C19.3882 14.5391 18.9475 13.6828 17.8491 13.6828C17.01 13.6828 16.5116 14.2625 16.2913 14.8203C16.21 15.0188 16.1897 15.3 16.1897 15.5797V21.2156H13.1507V14.5594C13.1507 13.3391 13.1116 12.3187 13.071 11.4406H15.71L15.8491 12.7984H15.91C16.31 12.1609 17.2897 11.2203 18.9288 11.2203C20.9272 11.2203 22.4257 12.5594 22.4257 15.4375V21.2172Z" fill="#292929"/>
</svg>
