<svg width="14" height="14" viewBox="0 0 14 14" fill="none" xmlns="http://www.w3.org/2000/svg">
<path d="M1.66665 2.3335C1.66665 1.96683 1.96665 1.66683 2.33331 1.66683H5.66665C6.03331 1.66683 6.33331 1.36683 6.33331 1.00016C6.33331 0.633496 6.03331 0.333496 5.66665 0.333496H1.66665C0.933313 0.333496 0.333313 0.933496 0.333313 1.66683V5.66683C0.333313 6.0335 0.633313 6.3335 0.99998 6.3335C1.36665 6.3335 1.66665 6.0335 1.66665 5.66683V2.3335ZM5.40665 7.9935L3.43331 10.4602C3.25998 10.6802 3.41331 11.0002 3.69331 11.0002H10.3333C10.6066 11.0002 10.7666 10.6868 10.6 10.4668L9.26665 8.68683C9.13332 8.50683 8.86665 8.50683 8.73332 8.68683L7.64665 10.1402L5.92665 7.9935C5.79331 7.82683 5.53998 7.82683 5.40665 7.9935ZM10.3333 4.66683C10.3333 4.1135 9.88665 3.66683 9.33332 3.66683C8.77998 3.66683 8.33331 4.1135 8.33331 4.66683C8.33331 5.22016 8.77998 5.66683 9.33332 5.66683C9.88665 5.66683 10.3333 5.22016 10.3333 4.66683ZM12.3333 0.333496H8.33331C7.96665 0.333496 7.66665 0.633496 7.66665 1.00016C7.66665 1.36683 7.96665 1.66683 8.33331 1.66683H11.6666C12.0333 1.66683 12.3333 1.96683 12.3333 2.3335V5.66683C12.3333 6.0335 12.6333 6.3335 13 6.3335C13.3667 6.3335 13.6667 6.0335 13.6667 5.66683V1.66683C13.6667 0.933496 13.0667 0.333496 12.3333 0.333496ZM12.3333 11.6668C12.3333 12.0335 12.0333 12.3335 11.6666 12.3335H8.33331C7.96665 12.3335 7.66665 12.6335 7.66665 13.0002C7.66665 13.3668 7.96665 13.6668 8.33331 13.6668H12.3333C13.0667 13.6668 13.6667 13.0668 13.6667 12.3335V8.3335C13.6667 7.96683 13.3667 7.66683 13 7.66683C12.6333 7.66683 12.3333 7.96683 12.3333 8.3335V11.6668ZM0.99998 7.66683C0.633313 7.66683 0.333313 7.96683 0.333313 8.3335V12.3335C0.333313 13.0668 0.933313 13.6668 1.66665 13.6668H5.66665C6.03331 13.6668 6.33331 13.3668 6.33331 13.0002C6.33331 12.6335 6.03331 12.3335 5.66665 12.3335H2.33331C1.96665 12.3335 1.66665 12.0335 1.66665 11.6668V8.3335C1.66665 7.96683 1.36665 7.66683 0.99998 7.66683Z" fill="#292E39"/>
</svg>
