<svg width="31" height="30" viewBox="0 0 31 30" fill="none" xmlns="http://www.w3.org/2000/svg">
<path opacity="0.8" fill-rule="evenodd" clip-rule="evenodd" d="M15.0038 0C6.71878 0 0.00378418 6.71625 0.00378418 15C0.00378418 23.2838 6.71878 30 15.0038 30C23.2875 30 30.0038 23.2838 30.0038 15C30.0038 6.71625 23.2875 0 15.0038 0ZM15.1788 23.7725C10.3438 23.7725 6.42878 19.8475 6.42878 15C6.42878 10.1525 10.3438 6.2275 15.1788 6.2275C17.5413 6.2275 19.5163 7.09875 21.0313 8.51375L18.5638 10.9862V10.9812C17.645 10.1038 16.48 9.65375 15.1788 9.65375C12.2913 9.65375 9.94503 12.0988 9.94503 14.995C9.94503 17.8888 12.2913 20.3413 15.1788 20.3413C17.7988 20.3413 19.5813 18.8387 19.9488 16.7762H15.1788V13.355H23.41C23.52 13.9425 23.5788 14.555 23.5788 15.1975C23.5788 20.21 20.2325 23.7725 15.1788 23.7725Z" fill="#292929"/>
</svg>
