<?xml version="1.0" encoding="UTF-8" standalone="no"?>
<svg
   xmlns:dc="http://purl.org/dc/elements/1.1/"
   xmlns:cc="http://creativecommons.org/ns#"
   xmlns:rdf="http://www.w3.org/1999/02/22-rdf-syntax-ns#"
   xmlns:svg="http://www.w3.org/2000/svg"
   xmlns="http://www.w3.org/2000/svg"
   viewBox="0 0 24 24"
   height="24"
   width="24"
   xml:space="preserve"
   id="svg2"
   version="1.1"><metadata
     id="metadata8"><rdf:RDF><cc:Work
         rdf:about=""><dc:format>image/svg+xml</dc:format><dc:type
           rdf:resource="http://purl.org/dc/dcmitype/StillImage" /></cc:Work></rdf:RDF></metadata><defs
     id="defs6" /><g
     transform="matrix(1.3333333,0,0,-1.3333333,0,24)"
     id="g10"><g
       transform="translate(5,6)"
       id="g12"><path
         id="path14"
         style="fill:#ffffff;fill-opacity:1;fill-rule:nonzero;stroke:none"
         d="M 0,6 H 8 V 0 H 0 Z" /></g><g
       id="g16"><g
         transform="translate(3.75,-1.567902)"
         id="g18"><path
           id="path20"
           style="fill:#ffffff;fill-opacity:1;fill-rule:nonzero;stroke:none"
           d="m 0.694167,14.960423 -0.812035,1.82773 -2.42e-4,-1.07e-4 z M 5.25,4.151256 4.775568,2.208342 5.25,2.092492 5.724432,2.208342 Z m 4.555833,10.809167 0.812277,1.827623 -2.43e-4,1.07e-4 z M 5.7225,16.77459 4.900272,14.951386 4.910465,14.946857 Z M 3.669167,8.065422 2.254953,6.651209 v -1e-6 z m -1.510834,1.510834 1.414214,1.414213 v 0 z m 0.8225,0.8225 -1.414218,-1.414219 0.00376,-0.00374 1.410457,1.41796 z M 4.083333,9.302089 2.672876,7.884129 4.08708,6.477408 5.497547,7.887876 Z M 4.491666,8.065422 3.077453,9.479635 3.06827,9.470452 3.059207,9.461151 Z M 3.965465,18.60232 -0.117868,16.788153 1.506201,13.132691 5.589534,14.946857 Z M -0.11811,16.788046 C -1.258104,16.281382 -2,15.146605 -2,13.892921 H 2 C 2,13.560905 1.806437,13.266129 1.506444,13.132799 Z M -2,13.892921 v -2.741665 h 4 v 2.741665 z m 0,-2.741665 C -2,7.074906 0.791888,3.181101 4.775568,2.208342 L 5.724432,6.09417 C 3.688112,6.591411 2,8.752604 2,11.151256 Z M 5.724432,2.208342 C 9.708111,3.181101 12.5,7.074906 12.5,11.151256 h -4 C 8.5,8.752604 6.811888,6.591411 4.775568,6.09417 Z M 12.5,11.151256 v 2.741665 h -4 v -2.741665 z m 0,2.741665 c 0,1.253685 -0.741898,2.388461 -1.88189,2.895125 L 8.993556,13.132799 C 8.693563,13.266129 8.5,13.560905 8.5,13.892921 Z m -1.882133,2.895232 -4.083332,1.814167 -1.62407,-3.655463 4.083333,-1.814166 z m -4.073152,1.80961 c -0.820291,0.369934 -1.769139,0.369934 -2.589431,0 l 1.644431,-3.646348 c -0.225291,-0.101602 -0.474139,-0.101602 -0.699431,0 z M 5.08338,9.479635 3.572547,10.990469 0.744119,8.162043 2.254953,6.651209 Z m -1.510833,1.510834 c 0.553548,-0.553549 0.553548,-1.452378 0,-2.005927 L 0.74412,11.812969 c -1.008549,-1.008549 -1.008549,-2.642378 0,-3.650927 z m 0,-2.005927 c -0.553549,-0.553549 -1.452379,-0.553549 -2.005927,0 l 2.828427,2.828427 c -1.008549,1.008549 -2.642379,1.008549 -3.650927,0 z m -2.002171,-0.00375 1.1025,-1.096667 2.820915,2.83592 -1.102501,1.096666 z m 3.927171,-1.09292 3.43,3.429999 -2.828427,2.828427 -3.43,-3.429999 z m 3.43,3.429999 c -0.553549,-0.553549 -1.452378,-0.553549 -2.005927,0 l 2.828427,2.828427 c -1.008548,1.008549 -2.642379,1.008549 -3.650927,0 z m -2.005927,0 c -0.553548,0.553549 -0.553548,1.452379 0,2.005928 l 2.828427,-2.828428 c 1.008548,1.008548 1.008548,2.642378 0,3.650927 z m 0,2.005928 L 3.077453,9.479635 5.90588,6.651208 9.750047,10.495375 Z M 3.059207,9.461151 c 0.573407,0.588497 1.480927,0.561731 2.024173,0.018484 L 2.254953,6.651208 C 3.253199,5.652962 4.907385,5.626196 5.924126,6.669692 Z" /></g><g
         transform="translate(3.75,-1.567902)"
         id="g22"><path
           id="path24"
           style="fill:#6bc24d;fill-opacity:1;fill-rule:nonzero;stroke:none"
           d="M 4.7775,16.77459 0.694167,14.960423 C 0.274167,14.773756 0,14.353755 0,13.892921 v -2.741665 c 0,-3.237501 2.24,-6.265001 5.25,-7 3.009999,0.734999 5.25,3.762499 5.25,7 v 2.741665 c 0,0.460834 -0.274167,0.880835 -0.694167,1.067502 L 5.7225,16.77459 c -0.2975,0.134164 -0.6475,0.134164 -0.945,0 z M 3.669167,8.065422 2.158333,9.576256 c -0.2275,0.2275 -0.2275,0.594999 0,0.8225 0.2275,0.227499 0.595,0.227499 0.8225,0 l 1.1025,-1.096667 3.43,3.429999 c 0.2275,0.227501 0.595001,0.227501 0.822501,0 0.2275,-0.227499 0.2275,-0.594999 0,-0.822499 L 4.491666,8.065422 c -0.221666,-0.2275 -0.594999,-0.2275 -0.822499,0 z" /></g></g></g></svg>