<svg width="80" height="80" viewBox="0 0 80 80" fill="none" xmlns="http://www.w3.org/2000/svg">
<g filter="url(#filter0_b_33_657)">
<circle cx="40" cy="40" r="40" fill="#6BC24D" fill-opacity="0.6"/>
<circle cx="40" cy="40" r="39.5" stroke="white"/>
</g>
<path d="M30 43.75C29.3125 43.75 28.75 44.3125 28.75 45V48.75C28.75 50.125 29.875 51.25 31.25 51.25H35C35.6875 51.25 36.25 50.6875 36.25 50C36.25 49.3125 35.6875 48.75 35 48.75H32.5C31.8125 48.75 31.25 48.1875 31.25 47.5V45C31.25 44.3125 30.6875 43.75 30 43.75ZM31.25 32.5C31.25 31.8125 31.8125 31.25 32.5 31.25H35C35.6875 31.25 36.25 30.6875 36.25 30C36.25 29.3125 35.6875 28.75 35 28.75H31.25C29.875 28.75 28.75 29.875 28.75 31.25V35C28.75 35.6875 29.3125 36.25 30 36.25C30.6875 36.25 31.25 35.6875 31.25 35V32.5ZM48.75 28.75H45C44.3125 28.75 43.75 29.3125 43.75 30C43.75 30.6875 44.3125 31.25 45 31.25H47.5C48.1875 31.25 48.75 31.8125 48.75 32.5V35C48.75 35.6875 49.3125 36.25 50 36.25C50.6875 36.25 51.25 35.6875 51.25 35V31.25C51.25 29.875 50.125 28.75 48.75 28.75ZM48.75 47.5C48.75 48.1875 48.1875 48.75 47.5 48.75H45C44.3125 48.75 43.75 49.3125 43.75 50C43.75 50.6875 44.3125 51.25 45 51.25H48.75C50.125 51.25 51.25 50.125 51.25 48.75V45C51.25 44.3125 50.6875 43.75 50 43.75C49.3125 43.75 48.75 44.3125 48.75 45V47.5ZM40 35C37.2375 35 35 37.2375 35 40C35 42.7625 37.2375 45 40 45C42.7625 45 45 42.7625 45 40C45 37.2375 42.7625 35 40 35ZM40 42.5C38.625 42.5 37.5 41.375 37.5 40C37.5 38.625 38.625 37.5 40 37.5C41.375 37.5 42.5 38.625 42.5 40C42.5 41.375 41.375 42.5 40 42.5Z" fill="white"/>
<defs>
<filter id="filter0_b_33_657" x="-10" y="-10" width="100" height="100" filterUnits="userSpaceOnUse" color-interpolation-filters="sRGB">
<feFlood flood-opacity="0" result="BackgroundImageFix"/>
<feGaussianBlur in="BackgroundImage" stdDeviation="5"/>
<feComposite in2="SourceAlpha" operator="in" result="effect1_backgroundBlur_33_657"/>
<feBlend mode="normal" in="SourceGraphic" in2="effect1_backgroundBlur_33_657" result="shape"/>
</filter>
</defs>
</svg>
