<svg width="18" height="16" viewBox="0 0 18 16" fill="none" xmlns="http://www.w3.org/2000/svg">
<path d="M16.5001 8.18333C16.5001 3.60833 12.9501 0.5 9.00008 0.5C5.09175 0.5 1.50008 3.54167 1.50008 8.23333C1.00008 8.51667 0.666748 9.05 0.666748 9.66667V11.3333C0.666748 12.25 1.41675 13 2.33342 13C2.79175 13 3.16675 12.625 3.16675 12.1667V8.15833C3.16675 4.96667 5.62508 2.175 8.81675 2.08333C12.1168 1.98333 14.8334 4.63333 14.8334 7.91667V13.8333H9.00008C8.54175 13.8333 8.16675 14.2083 8.16675 14.6667C8.16675 15.125 8.54175 15.5 9.00008 15.5H14.8334C15.7501 15.5 16.5001 14.75 16.5001 13.8333V12.8167C16.9918 12.5583 17.3334 12.05 17.3334 11.45V9.53333C17.3334 8.95 16.9918 8.44167 16.5001 8.18333Z" fill="#292E39"/>
<path d="M6.50008 9.66667C6.96032 9.66667 7.33341 9.29357 7.33341 8.83333C7.33341 8.3731 6.96032 8 6.50008 8C6.03984 8 5.66675 8.3731 5.66675 8.83333C5.66675 9.29357 6.03984 9.66667 6.50008 9.66667Z" fill="#292E39"/>
<path d="M11.5001 9.66667C11.9603 9.66667 12.3334 9.29357 12.3334 8.83333C12.3334 8.3731 11.9603 8 11.5001 8C11.0398 8 10.6667 8.3731 10.6667 8.83333C10.6667 9.29357 11.0398 9.66667 11.5001 9.66667Z" fill="#292E39"/>
<path d="M14.0001 7.19167C13.6001 4.81667 11.5335 3 9.0418 3C6.5168 3 3.80014 5.09167 4.0168 8.375C6.07514 7.53333 7.62514 5.7 8.0668 3.46667C9.15847 5.65833 11.4001 7.16667 14.0001 7.19167Z" fill="#292E39"/>
</svg>
