<svg width="18" height="14" viewBox="0 0 18 14" fill="none" xmlns="http://www.w3.org/2000/svg">
<path d="M15.6666 0.333496H2.33329C1.41663 0.333496 0.674959 1.0835 0.674959 2.00016L0.666626 12.0002C0.666626 12.9168 1.41663 13.6668 2.33329 13.6668H15.6666C16.5833 13.6668 17.3333 12.9168 17.3333 12.0002V2.00016C17.3333 1.0835 16.5833 0.333496 15.6666 0.333496ZM15.3333 3.87516L9.44163 7.5585C9.17496 7.72516 8.82496 7.72516 8.55829 7.5585L2.66663 3.87516C2.45829 3.74183 2.33329 3.51683 2.33329 3.27516C2.33329 2.71683 2.94163 2.3835 3.41663 2.67516L8.99996 6.16683L14.5833 2.67516C15.0583 2.3835 15.6666 2.71683 15.6666 3.27516C15.6666 3.51683 15.5416 3.74183 15.3333 3.87516Z" fill="#292E39"/>
</svg>
