<svg width="18" height="19" viewBox="0 0 18 19" fill="none" xmlns="http://www.w3.org/2000/svg">
<path d="M1.66659 16.5001H9.99992C10.4583 16.5001 10.8333 16.8751 10.8333 17.3334C10.8333 17.7918 10.4583 18.1668 9.99992 18.1668H1.66659C1.20825 18.1668 0.833252 17.7918 0.833252 17.3334C0.833252 16.8751 1.20825 16.5001 1.66659 16.5001ZM4.36659 5.7251L6.72492 3.36677L17.3333 13.9751C17.9833 14.6251 17.9833 15.6834 17.3333 16.3334C16.6833 16.9834 15.6249 16.9834 14.9749 16.3334L4.36659 5.7251ZM11.4416 1.00844L13.7999 3.36677C14.4499 4.01677 14.4499 5.0751 13.7999 5.7251L12.6166 6.90844L7.90825 2.19177L9.08325 1.01677C9.73325 0.358436 10.7916 0.358436 11.4416 1.00844V1.00844ZM3.19159 6.9001L7.90825 11.6168L6.73325 12.7918C6.08325 13.4418 5.02492 13.4418 4.37492 12.7918L2.01659 10.4334C1.36659 9.78344 1.36659 8.7251 2.01659 8.0751L3.19159 6.9001Z" fill="#292E39"/>
</svg>
