<svg width="80" height="102" viewBox="0 0 80 102" fill="none" xmlns="http://www.w3.org/2000/svg">
<path d="M40 101.667C45.6833 101.667 50.3333 97.0166 50.3333 91.3333H29.6666C29.6666 97.0166 34.265 101.667 40 101.667ZM71 70.6666V44.8333C71 28.9716 62.5266 15.6933 47.75 12.18V8.66663C47.75 4.37829 44.2883 0.916626 40 0.916626C35.7116 0.916626 32.25 4.37829 32.25 8.66663V12.18C17.4216 15.6933 8.99996 28.92 8.99996 44.8333V70.6666L2.33496 77.3316C-0.920039 80.5866 1.35329 86.1666 5.95163 86.1666H73.9966C78.595 86.1666 80.92 80.5866 77.665 77.3316L71 70.6666Z" fill="black"/>
</svg>
