<svg width="24" height="24" viewBox="0 0 24 24" fill="none" xmlns="http://www.w3.org/2000/svg">
<path d="M2 15.75C1.3125 15.75 0.75 16.3125 0.75 17V20.75C0.75 22.125 1.875 23.25 3.25 23.25H7C7.6875 23.25 8.25 22.6875 8.25 22C8.25 21.3125 7.6875 20.75 7 20.75H4.5C3.8125 20.75 3.25 20.1875 3.25 19.5V17C3.25 16.3125 2.6875 15.75 2 15.75ZM3.25 4.5C3.25 3.8125 3.8125 3.25 4.5 3.25H7C7.6875 3.25 8.25 2.6875 8.25 2C8.25 1.3125 7.6875 0.75 7 0.75H3.25C1.875 0.75 0.75 1.875 0.75 3.25V7C0.75 7.6875 1.3125 8.25 2 8.25C2.6875 8.25 3.25 7.6875 3.25 7V4.5ZM20.75 0.75H17C16.3125 0.75 15.75 1.3125 15.75 2C15.75 2.6875 16.3125 3.25 17 3.25H19.5C20.1875 3.25 20.75 3.8125 20.75 4.5V7C20.75 7.6875 21.3125 8.25 22 8.25C22.6875 8.25 23.25 7.6875 23.25 7V3.25C23.25 1.875 22.125 0.75 20.75 0.75ZM20.75 19.5C20.75 20.1875 20.1875 20.75 19.5 20.75H17C16.3125 20.75 15.75 21.3125 15.75 22C15.75 22.6875 16.3125 23.25 17 23.25H20.75C22.125 23.25 23.25 22.125 23.25 20.75V17C23.25 16.3125 22.6875 15.75 22 15.75C21.3125 15.75 20.75 16.3125 20.75 17V19.5ZM12 7C9.2375 7 7 9.2375 7 12C7 14.7625 9.2375 17 12 17C14.7625 17 17 14.7625 17 12C17 9.2375 14.7625 7 12 7ZM12 14.5C10.625 14.5 9.5 13.375 9.5 12C9.5 10.625 10.625 9.5 12 9.5C13.375 9.5 14.5 10.625 14.5 12C14.5 13.375 13.375 14.5 12 14.5Z" fill="url(#paint0_linear_29_1543)"/>
<defs>
<linearGradient id="paint0_linear_29_1543" x1="25.5" y1="1" x2="1" y2="27" gradientUnits="userSpaceOnUse">
<stop stop-color="#6BC24D"/>
<stop offset="1" stop-color="#2A836E"/>
</linearGradient>
</defs>
</svg>
