<svg width="13" height="12" viewBox="0 0 13 12" fill="none" xmlns="http://www.w3.org/2000/svg">
<path d="M4.66667 8.66667V3.33333C4.66667 2.6 5.26 2 6 2H12V1.33333C12 0.6 11.4 0 10.6667 0H1.33333C0.593333 0 0 0.6 0 1.33333V10.6667C0 11.4 0.593333 12 1.33333 12H10.6667C11.4 12 12 11.4 12 10.6667V10H6C5.26 10 4.66667 9.4 4.66667 8.66667ZM6.66667 3.33333C6.3 3.33333 6 3.63333 6 4V8C6 8.36667 6.3 8.66667 6.66667 8.66667H12.6667V3.33333H6.66667ZM8.66667 7C8.11333 7 7.66667 6.55333 7.66667 6C7.66667 5.44667 8.11333 5 8.66667 5C9.22 5 9.66667 5.44667 9.66667 6C9.66667 6.55333 9.22 7 8.66667 7Z" fill="#292929"/>
</svg>
