<svg width="18" height="18" viewBox="0 0 18 18" fill="none" xmlns="http://www.w3.org/2000/svg">
<path d="M1 12C0.45 12 0 12.45 0 13V16C0 17.1 0.9 18 2 18H5C5.55 18 6 17.55 6 17C6 16.45 5.55 16 5 16H3C2.45 16 2 15.55 2 15V13C2 12.45 1.55 12 1 12ZM2 3C2 2.45 2.45 2 3 2H5C5.55 2 6 1.55 6 1C6 0.45 5.55 0 5 0H2C0.9 0 0 0.9 0 2V5C0 5.55 0.45 6 1 6C1.55 6 2 5.55 2 5V3ZM16 0H13C12.45 0 12 0.45 12 1C12 1.55 12.45 2 13 2H15C15.55 2 16 2.45 16 3V5C16 5.55 16.45 6 17 6C17.55 6 18 5.55 18 5V2C18 0.9 17.1 0 16 0ZM16 15C16 15.55 15.55 16 15 16H13C12.45 16 12 16.45 12 17C12 17.55 12.45 18 13 18H16C17.1 18 18 17.1 18 16V13C18 12.45 17.55 12 17 12C16.45 12 16 12.45 16 13V15ZM9 5C6.79 5 5 6.79 5 9C5 11.21 6.79 13 9 13C11.21 13 13 11.21 13 9C13 6.79 11.21 5 9 5ZM9 11C7.9 11 7 10.1 7 9C7 7.9 7.9 7 9 7C10.1 7 11 7.9 11 9C11 10.1 10.1 11 9 11Z" fill="#6BC24D"/>
</svg>
