<svg width="18" height="16" viewBox="0 0 18 16" fill="none" xmlns="http://www.w3.org/2000/svg">
<path d="M10.05 0.499979C5.80832 0.383312 2.33332 3.79165 2.33332 7.99998H0.841651C0.466651 7.99998 0.283318 8.44998 0.549985 8.70831L2.87498 11.0416C3.04165 11.2083 3.29998 11.2083 3.46665 11.0416L5.79165 8.70831C6.04998 8.44998 5.86665 7.99998 5.49165 7.99998H3.99998C3.99998 4.74998 6.64999 2.12498 9.91665 2.16665C13.0167 2.20831 15.625 4.81665 15.6667 7.91665C15.7083 11.175 13.0833 13.8333 9.83332 13.8333C8.49165 13.8333 7.24999 13.375 6.26665 12.6C5.93332 12.3416 5.46665 12.3666 5.16665 12.6666C4.81665 13.0166 4.84165 13.6083 5.23332 13.9083C6.49999 14.9083 8.09165 15.5 9.83332 15.5C14.0417 15.5 17.45 12.025 17.3333 7.78331C17.225 3.87498 13.9583 0.608312 10.05 0.499979ZM9.62498 4.66665C9.28332 4.66665 8.99998 4.94998 8.99998 5.29165V8.35831C8.99998 8.64998 9.15832 8.92498 9.40832 9.07498L12.0083 10.6166C12.3083 10.7916 12.6917 10.6916 12.8667 10.4C13.0417 10.1 12.9417 9.71665 12.65 9.54165L10.25 8.11665V5.28331C10.25 4.94998 9.96665 4.66665 9.62498 4.66665Z" fill="#292E39"/>
</svg>
