<svg width="20" height="21" viewBox="0 0 20 21" fill="none" xmlns="http://www.w3.org/2000/svg">
<path d="M10 0.25C4.64563 0.25 0.25 4.42381 0.25 9.59375C0.25 12.3481 1.52562 14.7954 3.5 16.5V20.2578L7.10588 18.4549C8.02237 18.7311 8.98112 18.9375 10 18.9375C15.3544 18.9375 19.75 14.7637 19.75 9.59375C19.75 4.42381 15.3544 0.25 10 0.25ZM10 1.875C14.5167 1.875 18.125 5.34113 18.125 9.59375C18.125 13.8464 14.5167 17.3125 10 17.3125C9.02906 17.3125 8.102 17.1281 7.23263 16.8299L6.90275 16.7283L5.125 17.6172V15.7891L4.82031 15.5347C3.01737 14.1137 1.875 11.9841 1.875 9.59375C1.875 5.34113 5.48331 1.875 10 1.875ZM9.08594 7.0295L4.18575 12.2092L8.57812 9.77169L10.9141 12.2856L15.7639 7.02869L11.4722 9.44181L9.08594 7.0295Z" fill="#292E39"/>
</svg>
