<svg width="16" height="20" viewBox="0 0 16 20" fill="none" xmlns="http://www.w3.org/2000/svg">
<path d="M0.5 8.2C0.5 3.51144 4.06059 0.5 8 0.5C11.9394 0.5 15.5 3.51144 15.5 8.2C15.5 9.66071 14.9366 11.2959 13.7464 13.1178C12.5572 14.9381 10.7603 16.9166 8.34083 19.0536C8.14926 19.2188 7.86052 19.2188 7.66901 19.0535C5.24452 16.9164 3.44514 14.9379 2.25471 13.1176C1.06333 11.2958 0.5 9.66067 0.5 8.2ZM5.5 8C5.5 9.37614 6.62386 10.5 8 10.5C9.37614 10.5 10.5 9.37614 10.5 8C10.5 6.62386 9.37614 5.5 8 5.5C6.62386 5.5 5.5 6.62386 5.5 8Z" stroke="#292E39"/>
</svg>
