<svg width="152" height="48" viewBox="0 0 152 48" fill="none" xmlns="http://www.w3.org/2000/svg">
<path d="M0 3.58838H5.85435V12.571V14.5991V16.5484C6.48 15.5056 7.37379 14.6565 8.53572 14.0011C9.72745 13.3158 11.0532 12.9732 12.5131 12.9732C15.3434 12.9732 17.429 13.8074 18.7697 15.4758C20.1401 17.1442 20.8254 19.4234 20.8254 22.3133V35.5862H14.971V23.0284C14.971 21.5089 14.6135 20.3619 13.8985 19.5873C13.1834 18.7829 12.1854 18.3807 10.9043 18.3807C10.0999 18.3807 9.38483 18.5594 8.75917 18.9169C8.13352 19.2447 7.59724 19.7064 7.15035 20.3023C6.73324 20.8982 6.40552 21.5983 6.16717 22.4027C5.95862 23.1773 5.85435 24.0115 5.85435 24.9053V35.5862H0V3.58838Z" fill="#292E39"/>
<path d="M44.1632 30.3128C43.1502 32.1004 41.7797 33.5453 40.0517 34.6477C38.3535 35.75 36.268 36.3012 33.7952 36.3012C32.1267 36.3012 30.5775 36.0182 29.1474 35.4521C27.7472 34.8562 26.5256 34.0369 25.4829 32.9942C24.4401 31.9514 23.6208 30.7299 23.0249 29.3296C22.4589 27.8995 22.1758 26.3354 22.1758 24.6372C22.1758 23.0582 22.4589 21.5685 23.0249 20.1682C23.591 18.7382 24.3805 17.5018 25.3935 16.459C26.4065 15.3864 27.5982 14.5373 28.9687 13.9117C30.369 13.286 31.9033 12.9732 33.5717 12.9732C35.3295 12.9732 36.8936 13.2711 38.2641 13.867C39.6346 14.4331 40.7816 15.2375 41.7052 16.2802C42.6288 17.2932 43.329 18.4998 43.8056 19.9001C44.2823 21.3004 44.5207 22.8198 44.5207 24.4584C44.5207 24.667 44.5207 24.8458 44.5207 24.9947C44.4909 25.1735 44.476 25.3373 44.476 25.4863C44.4462 25.6353 44.4313 25.7991 44.4313 25.9779H27.9408C28.06 26.8717 28.2983 27.6463 28.6558 28.3018C29.0432 28.9274 29.5049 29.4637 30.0412 29.9106C30.6073 30.3277 31.2181 30.6405 31.8735 30.8491C32.5289 31.0278 33.1993 31.1172 33.8845 31.1172C35.2252 31.1172 36.3276 30.8193 37.1916 30.2234C38.0854 29.5978 38.7855 28.8231 39.292 27.8995L44.1632 30.3128ZM38.8451 21.8218C38.8153 21.4344 38.6812 21.0024 38.4429 20.5258C38.2343 20.0491 37.9066 19.6022 37.4597 19.1851C37.0426 18.768 36.5063 18.4253 35.8509 18.1572C35.2252 17.8891 34.4655 17.755 33.5717 17.755C32.3204 17.755 31.2181 18.1125 30.2647 18.8275C29.3113 19.5426 28.6409 20.5407 28.2536 21.8218H38.8451Z" fill="#292E39"/>
<path d="M46.0251 35.5862V3.58838H51.8795V35.5862H46.0251Z" fill="#292E39"/>
<path d="M54.4788 13.6882H59.9756V16.3249H60.3331C60.8694 15.4013 61.7036 14.6118 62.8358 13.9564C63.9679 13.3009 65.3682 12.9732 67.0366 12.9732C68.4369 12.9732 69.7626 13.2711 71.014 13.867C72.2951 14.4331 73.4123 15.2375 74.3657 16.2802C75.3489 17.2932 76.1235 18.5147 76.6895 19.9448C77.2556 21.3749 77.5387 22.939 77.5387 24.6372C77.5387 26.3354 77.2556 27.8995 76.6895 29.3296C76.1235 30.7597 75.3489 31.9961 74.3657 33.0389C73.4123 34.0518 72.2951 34.8562 71.014 35.4521C69.7626 36.0182 68.4369 36.3012 67.0366 36.3012C65.3682 36.3012 63.9679 35.9735 62.8358 35.318C61.7036 34.6626 60.8694 33.8731 60.3331 32.9495V35.5862V36.0778V45.2391H54.4788V13.6882ZM65.83 30.8938C66.6046 30.8938 67.3345 30.7448 68.0198 30.4469C68.7348 30.1489 69.3604 29.7318 69.8967 29.1956C70.433 28.6593 70.865 28.0038 71.1927 27.2292C71.5204 26.4546 71.6843 25.5906 71.6843 24.6372C71.6843 23.6838 71.5204 22.8198 71.1927 22.0452C70.865 21.2706 70.433 20.6151 69.8967 20.0789C69.3604 19.5426 68.7348 19.1255 68.0198 18.8275C67.3345 18.5296 66.6046 18.3807 65.83 18.3807C65.0553 18.3807 64.3105 18.5296 63.5955 18.8275C62.9102 19.0957 62.2995 19.4979 61.7632 20.0342C61.2269 20.5704 60.7949 21.2259 60.4672 22.0005C60.1395 22.7751 59.9756 23.654 59.9756 24.6372C59.9756 25.6204 60.1395 26.4993 60.4672 27.2739C60.7949 28.0485 61.2269 28.704 61.7632 29.2402C62.2995 29.7765 62.9102 30.1936 63.5955 30.4916C64.3105 30.7597 65.0553 30.8938 65.83 30.8938Z" fill="#292E39"/>
<path fill-rule="evenodd" clip-rule="evenodd" d="M89.0835 0C84.6652 0 81.0835 3.58172 81.0835 8V31.4483C81.0931 31.4483 81.1026 31.4483 81.1122 31.4483C82.49 31.4483 83.6572 31.9267 84.6139 32.8834C85.5707 33.8401 86.0491 35.0074 86.0491 36.3851C86.0491 37.7628 85.5707 38.9492 84.6139 39.9442C83.678 40.8801 82.5406 41.3583 81.2018 41.3786C81.8552 45.1399 85.1353 48 89.0835 48H143.428C147.847 48 151.428 44.4183 151.428 40V8C151.428 3.58172 147.847 0 143.428 0H89.0835ZM100.737 33.4378V21.1233C100.737 17.0527 99.7109 15.0174 97.6584 15.0174C95.9481 15.0174 94.6311 15.9581 93.7075 17.8395C92.8182 19.7208 92.3735 23.0389 92.3735 27.7937V35.8494C92.0314 36.3283 91.4328 36.5677 90.5776 36.5677C89.7224 36.5677 89.0383 36.3112 88.5252 35.7981C88.0121 35.2508 87.7555 34.464 87.7555 33.4378V13.9399C88.0976 13.461 88.6962 13.2215 89.5514 13.2215C90.4066 13.2215 91.0907 13.4952 91.6038 14.0425C92.1169 14.5556 92.3735 15.3253 92.3735 16.3515C93.5365 14.2648 95.5034 13.2215 98.2742 13.2215C101.524 13.2215 103.713 14.6069 104.842 17.3777C106.005 14.6069 108.177 13.2215 111.358 13.2215C113.582 13.2215 115.343 13.9228 116.643 15.3253C117.977 16.7277 118.644 18.7459 118.644 21.3799V28.6659C118.644 30.6157 118.952 32.0866 119.568 33.0786C120.184 34.0706 121.09 34.5666 122.287 34.5666C123.519 34.5666 124.596 33.8141 125.52 32.309C125.661 32.0746 125.791 31.816 125.91 31.5332C124.92 29.8231 124.424 27.7043 124.424 25.1768C124.424 21.4141 125.382 18.4894 127.298 16.4028C129.213 14.2819 131.659 13.2215 134.635 13.2215C136.79 13.2215 138.364 13.803 139.356 14.9661C140.348 16.0949 140.844 17.4461 140.844 19.0196C140.844 21.5851 139.766 23.723 137.611 25.4334C135.49 27.1095 132.771 27.9476 129.453 27.9476C129.761 30.1368 130.547 31.7959 131.813 32.9247C133.113 34.0193 134.806 34.5666 136.893 34.5666C139.014 34.5666 140.912 33.7799 142.588 32.2064C144.299 30.5986 145.154 28.2555 145.154 25.1768C145.188 24.9716 145.445 24.869 145.923 24.869C146.642 24.869 147.001 25.4163 147.001 26.5109C147.001 29.0422 146.112 31.3512 144.333 33.4378C142.588 35.5244 139.92 36.5677 136.328 36.5677C132.737 36.5677 129.846 35.6099 127.657 33.6944C127.489 33.5424 127.327 33.3849 127.173 33.2221C127.026 33.4754 126.869 33.7183 126.7 33.9509C125.469 35.6955 123.656 36.5677 121.261 36.5677C118.867 36.5677 117.02 35.7468 115.72 34.1048C114.454 32.4629 113.821 30.1368 113.821 27.1266V21.1233C113.821 17.0527 112.795 15.0174 110.743 15.0174C107.253 15.0174 105.509 19.3104 105.509 27.8963V35.8494C105.167 36.3283 104.551 36.5677 103.662 36.5677C102.807 36.5677 102.105 36.3112 101.558 35.7981C101.011 35.2508 100.737 34.464 100.737 33.4378ZM129.299 25.5873V26.0491C131.42 25.7755 133.25 25.1084 134.789 24.048C136.363 22.9876 137.149 21.4141 137.149 19.3275C137.149 17.9934 136.859 16.9843 136.277 16.3002C135.696 15.5818 134.875 15.2226 133.814 15.2226C132.206 15.2226 131.043 16.0094 130.325 17.5829C129.641 19.1564 129.299 21.8246 129.299 25.5873Z" fill="#6CC24D"/>
</svg>
