<svg width="30" height="30" viewBox="0 0 30 30" fill="none" xmlns="http://www.w3.org/2000/svg">
<path d="M5 18.75C4.3125 18.75 3.75 19.3125 3.75 20V23.75C3.75 25.125 4.875 26.25 6.25 26.25H10C10.6875 26.25 11.25 25.6875 11.25 25C11.25 24.3125 10.6875 23.75 10 23.75H7.5C6.8125 23.75 6.25 23.1875 6.25 22.5V20C6.25 19.3125 5.6875 18.75 5 18.75ZM6.25 7.5C6.25 6.8125 6.8125 6.25 7.5 6.25H10C10.6875 6.25 11.25 5.6875 11.25 5C11.25 4.3125 10.6875 3.75 10 3.75H6.25C4.875 3.75 3.75 4.875 3.75 6.25V10C3.75 10.6875 4.3125 11.25 5 11.25C5.6875 11.25 6.25 10.6875 6.25 10V7.5ZM23.75 3.75H20C19.3125 3.75 18.75 4.3125 18.75 5C18.75 5.6875 19.3125 6.25 20 6.25H22.5C23.1875 6.25 23.75 6.8125 23.75 7.5V10C23.75 10.6875 24.3125 11.25 25 11.25C25.6875 11.25 26.25 10.6875 26.25 10V6.25C26.25 4.875 25.125 3.75 23.75 3.75ZM23.75 22.5C23.75 23.1875 23.1875 23.75 22.5 23.75H20C19.3125 23.75 18.75 24.3125 18.75 25C18.75 25.6875 19.3125 26.25 20 26.25H23.75C25.125 26.25 26.25 25.125 26.25 23.75V20C26.25 19.3125 25.6875 18.75 25 18.75C24.3125 18.75 23.75 19.3125 23.75 20V22.5ZM15 10C12.2375 10 10 12.2375 10 15C10 17.7625 12.2375 20 15 20C17.7625 20 20 17.7625 20 15C20 12.2375 17.7625 10 15 10ZM15 17.5C13.625 17.5 12.5 16.375 12.5 15C12.5 13.625 13.625 12.5 15 12.5C16.375 12.5 17.5 13.625 17.5 15C17.5 16.375 16.375 17.5 15 17.5Z" fill="url(#paint0_linear_33_208)"/>
<defs>
<linearGradient id="paint0_linear_33_208" x1="28.5" y1="4" x2="4" y2="30" gradientUnits="userSpaceOnUse">
<stop stop-color="#6BC24D"/>
<stop offset="1" stop-color="#6BC24D"/>
</linearGradient>
</defs>
</svg>
