<svg width="104" height="98" viewBox="0 0 104 98" fill="none" xmlns="http://www.w3.org/2000/svg">
<path d="M103.615 35.3333C103.615 31.6133 101.703 28.3583 98.7584 26.55L57.2184 2.215C54.015 0.303333 49.985 0.303333 46.7817 2.215L5.24171 26.55C2.29671 28.3583 0.333374 31.6133 0.333374 35.3333V87C0.333374 92.6833 4.98337 97.3333 10.6667 97.3333H93.3334C99.0167 97.3333 103.667 92.6833 103.667 87L103.615 35.3333ZM46.5234 57.7567L9.32337 34.5067L46.7817 12.5483C49.985 10.6367 54.015 10.6367 57.2184 12.5483L94.6767 34.5067L57.4767 57.7567C54.1184 59.8233 49.8817 59.8233 46.5234 57.7567Z" fill="#292929"/>
</svg>
