<svg width="20" height="20" viewBox="0 0 20 20" fill="none" xmlns="http://www.w3.org/2000/svg">
<path d="M11.575 7.25002L10 8.82502L8.42502 7.25002C8.10002 6.92502 7.57502 6.92502 7.25002 7.25002C6.92502 7.57502 6.92502 8.10002 7.25002 8.42502L8.82502 10L7.25002 11.575C6.92502 11.9 6.92502 12.425 7.25002 12.75C7.57502 13.075 8.10002 13.075 8.42502 12.75L10 11.175L11.575 12.75C11.9 13.075 12.425 13.075 12.75 12.75C13.075 12.425 13.075 11.9 12.75 11.575L11.175 10L12.75 8.42502C13.075 8.10002 13.075 7.57502 12.75 7.25002C12.425 6.93335 11.8917 6.93335 11.575 7.25002ZM10 1.66669C5.39169 1.66669 1.66669 5.39169 1.66669 10C1.66669 14.6084 5.39169 18.3334 10 18.3334C14.6084 18.3334 18.3334 14.6084 18.3334 10C18.3334 5.39169 14.6084 1.66669 10 1.66669ZM10 16.6667C6.32502 16.6667 3.33335 13.675 3.33335 10C3.33335 6.32502 6.32502 3.33335 10 3.33335C13.675 3.33335 16.6667 6.32502 16.6667 10C16.6667 13.675 13.675 16.6667 10 16.6667Z" fill="#D13D3D"/>
</svg>
