<svg width="20" height="17" viewBox="0 0 20 17" fill="none" xmlns="http://www.w3.org/2000/svg">
<path d="M7.99998 10.5H7.49998V11V16C7.49998 16.2738 7.27383 16.5 6.99998 16.5H3.99998C3.72612 16.5 3.49998 16.2738 3.49998 16V8.99997V8.49997H2.99998H1.30629L9.66337 0.972591C9.66354 0.972442 9.66371 0.972292 9.66388 0.972142C9.8539 0.80258 10.1461 0.80258 10.3361 0.972142C10.3362 0.972292 10.3364 0.972442 10.3366 0.972591L18.6937 8.49997H17H16.5V8.99997V16C16.5 16.2738 16.2738 16.5 16 16.5H13C12.7261 16.5 12.5 16.2738 12.5 16V11V10.5H12H7.99998Z" stroke="#292E39"/>
</svg>
