<svg width="16" height="20" viewBox="0 0 16 20" fill="none" xmlns="http://www.w3.org/2000/svg">
<path d="M10.5 17.4997H12.1667V15.833H10.5V17.4997ZM13.8333 7.49967H15.5V5.83301H13.8333V7.49967ZM0.5 4.16634V15.833C0.5 16.7497 1.25 17.4997 2.16667 17.4997H4.66667C5.125 17.4997 5.5 17.1247 5.5 16.6663C5.5 16.208 5.125 15.833 4.66667 15.833H3C2.54167 15.833 2.16667 15.458 2.16667 14.9997V4.99967C2.16667 4.54134 2.54167 4.16634 3 4.16634H4.66667C5.125 4.16634 5.5 3.79134 5.5 3.33301C5.5 2.87467 5.125 2.49967 4.66667 2.49967H2.16667C1.25 2.49967 0.5 3.24967 0.5 4.16634ZM13.8333 2.49967V4.16634H15.5C15.5 3.24967 14.75 2.49967 13.8333 2.49967ZM8 19.1663C8.45833 19.1663 8.83333 18.7913 8.83333 18.333V1.66634C8.83333 1.20801 8.45833 0.833008 8 0.833008C7.54167 0.833008 7.16667 1.20801 7.16667 1.66634V18.333C7.16667 18.7913 7.54167 19.1663 8 19.1663ZM13.8333 14.1663H15.5V12.4997H13.8333V14.1663ZM10.5 4.16634H12.1667V2.49967H10.5V4.16634ZM13.8333 10.833H15.5V9.16634H13.8333V10.833ZM13.8333 17.4997C14.75 17.4997 15.5 16.7497 15.5 15.833H13.8333V17.4997Z" fill="#292E39"/>
</svg>
