<svg width="22" height="22" viewBox="0 0 22 22" fill="none" xmlns="http://www.w3.org/2000/svg">
<g opacity="0.8">
<path d="M15.3291 12.8885C15.0949 12.7682 13.9283 12.1967 13.7114 12.1193C13.4944 12.0377 13.3354 11.999 13.1785 12.2396C13.0196 12.4781 12.5684 13.0088 12.4266 13.1699C12.2891 13.3289 12.1494 13.3482 11.9153 13.2301C10.5231 12.534 9.61 11.9883 8.69262 10.4135C8.44985 9.99453 8.93539 10.0246 9.38871 9.12012C9.46606 8.96113 9.42738 8.82578 9.36723 8.70547C9.30707 8.58516 8.83442 7.4207 8.63676 6.9459C8.44555 6.48398 8.2479 6.54844 8.10395 6.53984C7.96645 6.53125 7.80961 6.53125 7.65063 6.53125C7.49165 6.53125 7.23598 6.59141 7.01899 6.82559C6.802 7.06406 6.1897 7.6377 6.1897 8.80215C6.1897 9.9666 7.03833 11.0945 7.15434 11.2535C7.27466 11.4125 8.82367 13.8016 11.202 14.8307C12.7059 15.4795 13.2946 15.5354 14.0465 15.4236C14.5041 15.3549 15.4473 14.8521 15.6428 14.2957C15.8383 13.7414 15.8383 13.2666 15.7803 13.1678C15.7223 13.0625 15.5633 13.0023 15.3291 12.8885Z" fill="#292E39"/>
<path d="M19.8773 7.27031C19.3918 6.1166 18.6957 5.08105 17.8084 4.1916C16.9211 3.3043 15.8855 2.60605 14.7297 2.12266C13.548 1.62637 12.2934 1.375 11 1.375H10.957C9.65508 1.38145 8.39394 1.63926 7.20801 2.14629C6.06289 2.63613 5.03594 3.33223 4.15723 4.21953C3.27852 5.10684 2.58887 6.13809 2.11191 7.2875C1.61777 8.47773 1.36855 9.74316 1.375 11.0451C1.38145 12.5361 1.73809 14.0164 2.40625 15.3398V18.6055C2.40625 19.1512 2.84883 19.5938 3.39453 19.5938H6.6623C7.98574 20.2619 9.46601 20.6186 10.957 20.625H11.0021C12.2891 20.625 13.5373 20.3758 14.7125 19.8881C15.8619 19.409 16.8953 18.7215 17.7805 17.8428C18.6678 16.9641 19.366 15.9371 19.8537 14.792C20.3607 13.6061 20.6186 12.3449 20.625 11.043C20.6314 9.73457 20.3779 8.46484 19.8773 7.27031ZM16.6311 16.6805C15.125 18.1715 13.127 18.9922 11 18.9922H10.9635C9.66797 18.9857 8.38105 18.6635 7.24453 18.0576L7.06406 17.9609H4.03906V14.9359L3.94238 14.7555C3.33652 13.6189 3.01426 12.332 3.00781 11.0365C2.99922 8.89453 3.81777 6.88359 5.31953 5.36895C6.81914 3.8543 8.82363 3.01641 10.9656 3.00781H11.0021C12.0764 3.00781 13.1184 3.21621 14.1002 3.62871C15.0584 4.03047 15.9178 4.6084 16.6568 5.34746C17.3937 6.08437 17.9738 6.9459 18.3756 7.9041C18.7924 8.89668 19.0008 9.94941 18.9965 11.0365C18.9836 13.1764 18.1436 15.1809 16.6311 16.6805Z" fill="#292E39"/>
</g>
</svg>
