<svg width="54" height="54" viewBox="0 0 54 54" fill="none" xmlns="http://www.w3.org/2000/svg">
<g clip-path="url(#clip0_33_98)">
<g filter="url(#filter0_d_33_98)">
<path d="M37.6667 17.6667H33.4401L31.7867 15.8667C31.2934 15.32 30.5734 15 29.8267 15H24.1734C23.4267 15 22.7067 15.32 22.2001 15.8667L20.5601 17.6667H16.3334C14.8667 17.6667 13.6667 18.8667 13.6667 20.3333V36.3333C13.6667 37.8 14.8667 39 16.3334 39H37.6667C39.1334 39 40.3334 37.8 40.3334 36.3333V20.3333C40.3334 18.8667 39.1334 17.6667 37.6667 17.6667ZM29.2267 34.6C28.5334 34.8533 27.7867 35 27.0001 35C23.3201 35 20.3334 32.0133 20.3334 28.3333H17.6667L21.0001 25L24.3334 28.3333H21.6667C21.6667 31.28 24.0534 33.6667 27.0001 33.6667C27.6134 33.6667 28.2134 33.56 28.7601 33.36C29.0134 33.2667 29.2801 33.32 29.4667 33.5067C29.8134 33.8533 29.6801 34.4267 29.2267 34.6ZM33.0001 31.6667L29.6667 28.3333H32.3334C32.3334 25.3867 29.9467 23 27.0001 23C26.3867 23 25.7867 23.1067 25.2401 23.3067C24.9867 23.4 24.7201 23.3467 24.5334 23.16C24.1867 22.8133 24.3201 22.24 24.7734 22.0667C25.4667 21.8133 26.2134 21.6667 27.0001 21.6667C30.6801 21.6667 33.6667 24.6533 33.6667 28.3333H36.3334L33.0001 31.6667Z" fill="white"/>
</g>
</g>
<defs>
<filter id="filter0_d_33_98" x="3.66675" y="15" width="46.6667" height="44" filterUnits="userSpaceOnUse" color-interpolation-filters="sRGB">
<feFlood flood-opacity="0" result="BackgroundImageFix"/>
<feColorMatrix in="SourceAlpha" type="matrix" values="0 0 0 0 0 0 0 0 0 0 0 0 0 0 0 0 0 0 127 0" result="hardAlpha"/>
<feOffset dy="10"/>
<feGaussianBlur stdDeviation="5"/>
<feComposite in2="hardAlpha" operator="out"/>
<feColorMatrix type="matrix" values="0 0 0 0 0 0 0 0 0 0 0 0 0 0 0 0 0 0 0.2 0"/>
<feBlend mode="normal" in2="BackgroundImageFix" result="effect1_dropShadow_33_98"/>
<feBlend mode="normal" in="SourceGraphic" in2="effect1_dropShadow_33_98" result="shape"/>
</filter>
<clipPath id="clip0_33_98">
<rect width="54" height="54" fill="white"/>
</clipPath>
</defs>
</svg>
