<?xml version="1.0" encoding="UTF-8"?>
<svg width="80px" height="80px" viewBox="0 0 80 80" version="1.1" xmlns="http://www.w3.org/2000/svg" xmlns:xlink="http://www.w3.org/1999/xlink">
    <title>Group</title>
    <g id="Page-1" stroke="none" stroke-width="1" fill="none" fill-rule="evenodd">
        <g id="Group">
            <g id="person.fill" transform="translate(20.000000, 20.000000)" fill-rule="nonzero">
                <rect id="Rectangle" fill="#000000" opacity="0" x="0" y="0" width="40" height="40"></rect>
                <path d="M4.06417815,40 L35.9358705,40 C37.203533,40 38.1978035,39.7414746 38.9186821,39.2244238 C39.6395607,38.707373 40,37.9973417 40,37.0943297 C40,35.6961898 39.5366128,34.2179644 38.6098385,32.6596536 C37.6829018,31.1013428 36.3518806,29.6413119 34.6167747,28.2795609 C32.881831,26.9178099 30.7823918,25.8109305 28.318457,24.9589226 C25.8546845,24.1069148 23.0779228,23.6809109 19.9881719,23.6809109 C16.9142892,23.6809109 14.1454129,24.1069148 11.681543,24.9589226 C9.21768935,25.8109305 7.11429933,26.9178099 5.37137294,28.2795609 C3.62844655,29.6413119 2.29748694,31.1013428 1.37849411,32.6596536 C0.459498038,34.2179644 0,35.6961898 0,37.0943297 C0,37.9973417 0.360468498,38.707373 1.08140549,39.2244238 C1.80234249,39.7414746 2.79660004,40 4.06417815,40 Z M20.0119497,19.7705708 C21.7073368,19.7705708 23.2759251,19.3445744 24.7177147,18.4925815 C26.1596341,17.6405886 27.3202925,16.4863961 28.1996897,15.0300041 C29.0790869,13.5736121 29.5187856,11.9351636 29.5187856,10.1146587 C29.5187856,8.32329469 29.0790869,6.71761861 28.1996897,5.29763043 C27.3202925,3.87765716 26.1596341,2.75987674 24.7177147,1.94428916 C23.2759251,1.12870754 21.7073368,0.720916732 20.0119497,0.720916732 C18.3165465,0.720916732 16.7479095,1.13598905 15.3060388,1.9661337 C13.864168,2.7962843 12.7035421,3.92499259 11.8241611,5.35225856 C10.9447801,6.77952452 10.5050896,8.3815617 10.5050896,10.1583701 C10.5050896,11.9642896 10.9447801,13.5918065 11.8241611,15.0409208 C12.7035421,16.490035 13.864168,17.6405886 15.3060388,18.4925815 C16.7479095,19.3445744 18.3165465,19.7705708 20.0119497,19.7705708 Z" id="Shape" fill-opacity="0.850000024" fill="#FFFFFF"></path>
            </g>
            <rect id="Rectangle" x="0" y="0" width="80" height="80"></rect>
        </g>
    </g>
</svg>