<svg width="94" height="94" viewBox="0 0 94 94" fill="none" xmlns="http://www.w3.org/2000/svg">
<path d="M83.1667 0.5H10.8333C5.15 0.5 0.5 5.15 0.5 10.8333V83.1667C0.5 88.85 5.15 93.5 10.8333 93.5H83.1667C88.85 93.5 93.5 88.85 93.5 83.1667V10.8333C93.5 5.15 88.85 0.5 83.1667 0.5ZM83.1667 10.8333V57.3333H64.7733C62.9133 57.3333 61.26 58.315 60.33 59.9167C57.6433 64.5667 52.735 67.6667 47 67.6667C41.265 67.6667 36.3567 64.5667 33.67 59.9167C32.74 58.315 31.035 57.3333 29.2267 57.3333H10.8333V10.8333H83.1667Z" fill="#292E39"/>
</svg>
