<svg width="14" height="14" viewBox="0 0 14 14" fill="none" xmlns="http://www.w3.org/2000/svg">
<path d="M13.3 0.710215C12.91 0.320215 12.28 0.320215 11.89 0.710215L7 5.59022L2.11 0.700215C1.72 0.310215 1.09 0.310215 0.700001 0.700215C0.310001 1.09021 0.310001 1.72022 0.700001 2.11022L5.59 7.00022L0.700001 11.8902C0.310001 12.2802 0.310001 12.9102 0.700001 13.3002C1.09 13.6902 1.72 13.6902 2.11 13.3002L7 8.41022L11.89 13.3002C12.28 13.6902 12.91 13.6902 13.3 13.3002C13.69 12.9102 13.69 12.2802 13.3 11.8902L8.41 7.00022L13.3 2.11022C13.68 1.73022 13.68 1.09022 13.3 0.710215Z" fill="#6BC24D"/>
</svg>
