<svg width="16" height="16" viewBox="0 0 16 16" fill="none" xmlns="http://www.w3.org/2000/svg">
<path d="M2.16667 2.16667H7.16667C7.625 2.16667 8 1.79167 8 1.33333C8 0.875 7.625 0.5 7.16667 0.5H2.16667C1.25 0.5 0.5 1.25 0.5 2.16667V13.8333C0.5 14.75 1.25 15.5 2.16667 15.5H7.16667C7.625 15.5 8 15.125 8 14.6667C8 14.2083 7.625 13.8333 7.16667 13.8333H2.16667V2.16667Z" fill="#292E39"/>
<path d="M15.2083 7.70812L12.8833 5.38311C12.6167 5.11645 12.1667 5.29978 12.1667 5.67478V7.16645H6.33333C5.875 7.16645 5.5 7.54145 5.5 7.99978C5.5 8.45812 5.875 8.83312 6.33333 8.83312H12.1667V10.3248C12.1667 10.6998 12.6167 10.8831 12.875 10.6165L15.2 8.29145C15.3667 8.13312 15.3667 7.86645 15.2083 7.70812Z" fill="#292E39"/>
</svg>
